<mxfile host="app.diagrams.net" modified="2021-05-07T00:55:56.332Z" agent="5.0 (Macintosh; Intel Mac OS X 11_0_0) AppleWebKit/537.36 (KHTML, like Gecko) Chrome/86.0.4240.272 Whale/2.9.117.21 Safari/537.36" etag="Leaj45mtr0iPZAdqeyDs" version="14.6.10" type="github">
  <diagram name="Page-1" id="9361dd3d-8414-5efd-6122-117bd74ce7a7">
    <mxGraphModel dx="1136" dy="335" grid="0" gridSize="10" guides="1" tooltips="1" connect="1" arrows="1" fold="1" page="0" pageScale="1.5" pageWidth="826" pageHeight="1169" background="#ffffff" math="0" shadow="0">
      <root>
        <mxCell id="0" />
        <mxCell id="1" parent="0" />
        <mxCell id="-7WysK2VBJ841jMT0JIc-91" value="Entities" style="shape=module;align=left;spacingLeft=20;align=center;verticalAlign=top;" vertex="1" parent="1">
          <mxGeometry x="140" y="580" width="150" height="90" as="geometry" />
        </mxCell>
        <mxCell id="-7WysK2VBJ841jMT0JIc-89" value="User" style="rounded=1;whiteSpace=wrap;html=1;" vertex="1" parent="1">
          <mxGeometry x="180" y="610" width="80" height="40" as="geometry" />
        </mxCell>
        <mxCell id="-7WysK2VBJ841jMT0JIc-92" value="Authorizer" style="shape=module;align=left;spacingLeft=20;align=center;verticalAlign=top;" vertex="1" parent="1">
          <mxGeometry x="370" y="580" width="150" height="90" as="geometry" />
        </mxCell>
        <mxCell id="-7WysK2VBJ841jMT0JIc-93" value="Permissions" style="rounded=1;whiteSpace=wrap;html=1;" vertex="1" parent="1">
          <mxGeometry x="410" y="610" width="80" height="40" as="geometry" />
        </mxCell>
        <mxCell id="-7WysK2VBJ841jMT0JIc-97" value="Entities" style="shape=module;align=left;spacingLeft=20;align=center;verticalAlign=top;" vertex="1" parent="1">
          <mxGeometry x="140" y="823" width="150" height="90" as="geometry" />
        </mxCell>
        <mxCell id="-7WysK2VBJ841jMT0JIc-98" value="User" style="rounded=1;whiteSpace=wrap;html=1;" vertex="1" parent="1">
          <mxGeometry x="160" y="863" width="50" height="20" as="geometry" />
        </mxCell>
        <mxCell id="-7WysK2VBJ841jMT0JIc-99" value="Authorizer" style="shape=module;align=left;spacingLeft=20;align=center;verticalAlign=top;" vertex="1" parent="1">
          <mxGeometry x="370" y="823" width="150" height="90" as="geometry" />
        </mxCell>
        <mxCell id="-7WysK2VBJ841jMT0JIc-100" value="Permissions" style="rounded=1;whiteSpace=wrap;html=1;" vertex="1" parent="1">
          <mxGeometry x="410" y="853" width="80" height="40" as="geometry" />
        </mxCell>
        <mxCell id="-7WysK2VBJ841jMT0JIc-102" value="&amp;lt;I&amp;gt;&lt;br&gt;Permissions" style="rounded=1;whiteSpace=wrap;html=1;" vertex="1" parent="1">
          <mxGeometry x="213" y="879" width="70" height="30" as="geometry" />
        </mxCell>
        <mxCell id="-7WysK2VBJ841jMT0JIc-103" value="" style="endArrow=open;endFill=1;endSize=12;html=1;rounded=0;edgeStyle=orthogonalEdgeStyle;exitX=0.5;exitY=1;exitDx=0;exitDy=0;entryX=0;entryY=0.5;entryDx=0;entryDy=0;" edge="1" parent="1" source="-7WysK2VBJ841jMT0JIc-98" target="-7WysK2VBJ841jMT0JIc-102">
          <mxGeometry width="160" relative="1" as="geometry">
            <mxPoint x="240" y="833" as="sourcePoint" />
            <mxPoint x="400" y="833" as="targetPoint" />
          </mxGeometry>
        </mxCell>
        <mxCell id="-7WysK2VBJ841jMT0JIc-104" value="" style="endArrow=block;endSize=16;endFill=0;html=1;rounded=0;edgeStyle=orthogonalEdgeStyle;entryX=1;entryY=0.5;entryDx=0;entryDy=0;exitX=0;exitY=0.5;exitDx=0;exitDy=0;" edge="1" parent="1" source="-7WysK2VBJ841jMT0JIc-100" target="-7WysK2VBJ841jMT0JIc-102">
          <mxGeometry width="160" relative="1" as="geometry">
            <mxPoint x="240" y="833" as="sourcePoint" />
            <mxPoint x="400" y="833" as="targetPoint" />
          </mxGeometry>
        </mxCell>
        <mxCell id="-7WysK2VBJ841jMT0JIc-105" value="" style="shape=singleArrow;direction=south;whiteSpace=wrap;html=1;" vertex="1" parent="1">
          <mxGeometry x="290" y="694" width="60" height="100" as="geometry" />
        </mxCell>
        <mxCell id="-7WysK2VBJ841jMT0JIc-106" value="의존성을 역전시키자" style="text;html=1;align=center;verticalAlign=middle;resizable=0;points=[];autosize=1;strokeColor=none;" vertex="1" parent="1">
          <mxGeometry x="337" y="735" width="107" height="18" as="geometry" />
        </mxCell>
        <mxCell id="-7WysK2VBJ841jMT0JIc-107" value="" style="endArrow=open;endFill=1;endSize=12;html=1;rounded=0;edgeStyle=orthogonalEdgeStyle;exitX=1;exitY=0.5;exitDx=0;exitDy=0;entryX=0;entryY=0.5;entryDx=0;entryDy=0;" edge="1" parent="1" source="-7WysK2VBJ841jMT0JIc-89" target="-7WysK2VBJ841jMT0JIc-93">
          <mxGeometry width="160" relative="1" as="geometry">
            <mxPoint x="238" y="790" as="sourcePoint" />
            <mxPoint x="398" y="790" as="targetPoint" />
          </mxGeometry>
        </mxCell>
      </root>
    </mxGraphModel>
  </diagram>
</mxfile>
